<svg width="149" height="43" viewBox="0 0 149 43" fill="none" xmlns="http://www.w3.org/2000/svg">
<g clip-path="url(#clip0)">
<path fill-rule="evenodd" clip-rule="evenodd" d="M69.653 10.1421C70.0549 9.74015 70.5574 9.53916 71.1101 9.53916C71.6628 9.53916 72.1652 9.74015 72.517 10.1421C72.9189 10.5441 73.1199 10.9963 73.1199 11.549V31.8985C73.1199 32.4512 72.9189 32.9537 72.517 33.3054C72.115 33.7074 71.6628 33.8581 71.1101 33.8581C70.5574 33.8581 70.1052 33.6571 69.7032 33.3054C69.3012 32.9034 69.1505 32.4512 69.1505 31.8985V11.549C69.1003 11.0465 69.3012 10.5441 69.653 10.1421ZM111.357 29.135C112.563 29.8887 114.02 30.2404 115.678 30.2404C117.336 30.2404 118.793 29.8887 119.999 29.135C121.205 28.3813 122.16 27.3764 122.763 26.1203C123.416 24.8139 123.717 23.3567 123.717 21.7489C123.717 20.141 123.416 18.6336 122.763 17.3775C122.109 16.1214 121.205 15.0662 119.999 14.3628C118.793 13.6091 117.336 13.2573 115.678 13.2573C114.02 13.2573 112.563 13.6091 111.357 14.3628C110.151 15.1164 109.247 16.1214 108.593 17.3775C107.94 18.6839 107.639 20.141 107.639 21.7489C107.639 23.3567 107.94 24.8641 108.593 26.1203C109.247 27.3764 110.151 28.4316 111.357 29.135ZM115.678 9.38843C118.09 9.38843 120.2 9.94113 122.009 10.9963C123.818 12.0515 125.225 13.5086 126.23 15.4179C127.235 17.277 127.737 19.3873 127.787 21.7489C127.737 24.4119 127.084 26.7734 125.828 28.7833C124.722 30.5921 123.165 31.9488 121.255 32.9034L122.461 36.3201C122.712 37.0738 122.712 38.33 121.406 38.7822C121.054 38.8827 120.753 38.9329 120.502 38.9329C119.396 38.9329 118.894 38.0285 118.743 37.6768C118.592 37.2748 117.437 33.9586 117.437 33.9586C116.934 34.0088 116.331 34.0591 115.678 34.0591C113.266 34.0591 111.156 33.5064 109.347 32.4512C107.538 31.3961 106.131 29.9389 105.126 28.0798C104.172 26.2207 103.619 24.1104 103.569 21.6986C103.619 19.2868 104.122 17.1765 105.126 15.3174C106.131 13.4583 107.538 12.0012 109.347 10.946C111.156 9.94113 113.316 9.38843 115.678 9.38843ZM132.36 10.1421C132.762 9.74015 133.214 9.53916 133.766 9.53916C134.319 9.53916 134.822 9.74015 135.173 10.1421C135.575 10.5441 135.776 10.9963 135.776 11.549V29.7379H146.077C146.629 29.7379 147.132 29.9389 147.484 30.3409C147.886 30.7429 148.087 31.1951 148.087 31.7478C148.087 32.3005 147.886 32.8029 147.484 33.1546C147.082 33.5566 146.629 33.7074 146.077 33.7074H134.369C133.666 33.7074 133.063 33.4561 132.561 32.9537C132.058 32.4512 131.807 31.8483 131.807 31.1448V11.549C131.807 11.0465 131.958 10.5441 132.36 10.1421ZM96.1827 10.1421C96.5847 9.74015 97.0369 9.53916 97.5896 9.53916C98.1423 9.53916 98.6447 9.74015 98.9964 10.1421C99.3984 10.5441 99.5994 10.9963 99.5994 11.549V31.2453C99.5994 31.999 99.3482 32.6019 98.7955 33.1044C98.293 33.6069 97.6398 33.8581 96.9364 33.8581H96.5344C96.0822 33.8581 95.6802 33.7576 95.3285 33.5566C94.9768 33.3556 94.6251 33.1044 94.4241 32.7527L82.5159 15.6691V31.8985C82.5159 32.4512 82.3149 32.9537 81.9129 33.3054C81.5109 33.7074 81.0587 33.8581 80.506 33.8581C79.9533 33.8581 79.5011 33.6571 79.0991 33.3054C78.6972 32.9034 78.5464 32.4512 78.5464 31.8985V12.2524C78.5464 11.549 78.7977 10.8958 79.3001 10.3431C79.8026 9.79039 80.4558 9.53916 81.1592 9.53916H81.6114C82.4656 9.53916 83.2193 9.94113 83.8222 10.7451L95.63 27.7784V11.549C95.5797 11.0465 95.7807 10.5441 96.1827 10.1421ZM50.9616 13.5588V21.5479H56.1871C58.2974 21.5479 59.7545 21.1459 60.5585 20.3922C61.3624 19.6386 61.7644 18.6839 61.7644 17.5785C61.7644 16.4228 61.3624 15.5184 60.5585 14.7647C59.7545 14.011 58.2472 13.6091 56.1871 13.6091H50.9616V13.5588ZM48.9517 9.74015H56.4886C58.6491 9.74015 60.458 10.0919 61.8146 10.8456C63.2215 11.5992 64.2264 12.5539 64.8796 13.7598C65.4826 14.9155 65.784 16.2218 65.784 17.5785C65.784 18.9351 65.4826 20.1913 64.8796 21.3972C64.2767 22.6031 63.2215 23.5577 61.8146 24.3114C60.4077 25.0651 58.6491 25.4168 56.4886 25.4168H50.9616V31.9488C50.9616 32.5015 50.7606 33.0039 50.3586 33.3556C49.9566 33.7074 49.4542 33.9083 48.9517 33.9083C48.399 33.9083 47.9468 33.7074 47.5448 33.3556C47.1429 32.9537 46.9419 32.5015 46.9419 31.9488V11.75C46.9419 11.1973 47.1429 10.7451 47.4946 10.3431C47.8966 9.94113 48.3488 9.74015 48.9517 9.74015Z" fill="#3F49A8"/>
</g>
<path d="M9.581 26.4267C9.37043 26.1635 9.26514 25.795 9.37043 25.4265L10.3706 20.5307C8.58078 19.1094 7.47529 16.951 7.47529 14.5294C7.47529 10.318 10.8971 6.84357 15.1611 6.84357C19.3726 6.84357 22.847 10.2654 22.847 14.5294C22.847 17.0036 21.6362 19.2146 19.8464 20.636L20.9519 25.4265C21.0571 25.795 20.9519 26.1635 20.6886 26.4267C20.4781 26.6899 20.1622 26.8479 19.7937 26.8479H10.4759C10.1074 26.9005 9.79157 26.7426 9.581 26.4267ZM15.1085 0C6.73829 0 0 6.73829 0 15.1085C0 21.6889 7.15943 33.9546 11.9499 40.5876C13.4766 42.746 16.6878 42.746 18.2144 40.5876C23.0576 33.9546 30.1644 21.6889 30.1644 15.1085C30.1644 6.73829 23.4261 0 15.1085 0Z" fill="#3F49A8"/>
<path d="M14.5093 10.4383C17.8087 10.0631 20.6754 12.368 21.2163 15.4234C21.2704 15.0482 21.3245 14.7265 21.3245 14.3513C21.3245 10.76 18.1873 7.91903 14.5093 8.34785C11.6967 8.66946 9.425 10.9208 9.10047 13.7081C9.04638 14.2977 9.04638 14.8873 9.15456 15.4234C9.64135 12.7969 11.859 10.76 14.5093 10.4383Z" fill="#A6ACFF"/>
<path fill-rule="evenodd" clip-rule="evenodd" d="M22.9061 14.5095C22.9061 10.2429 19.4401 6.7229 15.121 6.7229C10.8552 6.7229 7.33594 10.1895 7.33594 14.5095C7.33594 16.9628 8.56996 19.2999 10.3296 20.6866L10.3829 20.3666L10.5962 19.2466C10.6495 18.9266 10.5353 18.4561 10.322 18.1895C9.73545 17.4428 9.30887 16.5362 9.1489 15.5228C9.04226 14.9895 9.04226 14.4028 9.09558 13.8162C9.36219 11.0429 11.6551 8.80288 14.4278 8.48289C18.1071 8.05622 21.1998 10.8829 21.1998 14.4562C21.1998 14.8295 21.1465 15.2028 21.0931 15.5228C20.8798 16.5362 20.4533 17.4962 19.8134 18.2961C19.6001 18.5628 19.4401 19.0051 19.5468 19.3784L19.8134 20.4984L19.8667 20.7651C21.6797 19.3251 22.9061 17.0162 22.9061 14.5095Z" fill="#5E69F3"/>
<defs>
<clipPath id="clip0">
<rect width="101.145" height="29.5445" fill="white" transform="translate(46.9419 9.38843)"/>
</clipPath>
</defs>
</svg>
