<svg width="31" height="43" viewBox="0 0 31 43" fill="none" xmlns="http://www.w3.org/2000/svg">
<path d="M9.581 26.4267C9.37043 26.1635 9.26514 25.795 9.37043 25.4265L10.3706 20.5307C8.58078 19.1094 7.47529 16.951 7.47529 14.5294C7.47529 10.318 10.8971 6.84357 15.1611 6.84357C19.3726 6.84357 22.847 10.2654 22.847 14.5294C22.847 17.0036 21.6362 19.2146 19.8464 20.636L20.9519 25.4265C21.0571 25.795 20.9519 26.1635 20.6886 26.4267C20.4781 26.6899 20.1622 26.8479 19.7937 26.8479H10.4759C10.1074 26.9005 9.79157 26.7426 9.581 26.4267ZM15.1085 0C6.73829 0 0 6.73829 0 15.1085C0 21.6889 7.15943 33.9546 11.9499 40.5876C13.4766 42.746 16.6878 42.746 18.2144 40.5876C23.0576 33.9546 30.1644 21.6889 30.1644 15.1085C30.1644 6.73829 23.4261 0 15.1085 0Z" fill="#3F49A8"/>
<path d="M14.5088 10.4383C17.8082 10.0631 20.6749 12.368 21.2158 15.4234C21.2699 15.0482 21.324 14.7265 21.324 14.3513C21.324 10.76 18.1869 7.91903 14.5088 8.34785C11.6962 8.66946 9.42451 10.9208 9.09998 13.7081C9.04589 14.2977 9.04589 14.8873 9.15407 15.4234C9.64087 12.7969 11.8585 10.76 14.5088 10.4383Z" fill="#A6ACFF"/>
<path fill-rule="evenodd" clip-rule="evenodd" d="M22.9061 14.5095C22.9061 10.2429 19.4401 6.7229 15.121 6.7229C10.8552 6.7229 7.33594 10.1895 7.33594 14.5095C7.33594 16.9628 8.56996 19.2999 10.3296 20.6866L10.3829 20.3666L10.5962 19.2466C10.6495 18.9266 10.5353 18.4561 10.322 18.1895C9.73545 17.4428 9.30887 16.5362 9.1489 15.5228C9.04226 14.9895 9.04226 14.4028 9.09558 13.8162C9.36219 11.0429 11.6551 8.80288 14.4278 8.48289C18.1071 8.05622 21.1998 10.8829 21.1998 14.4562C21.1998 14.8295 21.1465 15.2028 21.0931 15.5228C20.8798 16.5362 20.4533 17.4962 19.8134 18.2961C19.6001 18.5628 19.4401 19.0051 19.5468 19.3784L19.8134 20.4984L19.8667 20.7651C21.6797 19.3251 22.9061 17.0162 22.9061 14.5095Z" fill="#5E69F3"/>
</svg>
